<svg xmlns="http://www.w3.org/2000/svg" xmlns:xlink="http://www.w3.org/1999/xlink" style="opacity: 0.42; margin:auto;background:#f1f2f3;display:block;z-index:1;position:relative" width="100%" height="100%" preserveAspectRatio="xMidYMid" viewBox="0 0 100% 100vh">
    <defs>
      <pattern id="pid-0.6756282511096747" x="0" y="0" width="166.4" height="166.4" patternUnits="userSpaceOnUse">
        <g transform="scale(0.65)"><g> <line x1="16" y1="-240" x2="16" y2="-176" stroke="#f8f8f8" stroke-width="10" stroke-linecap="round"></line> <line x1="16" y1="16" x2="16" y2="80" stroke="#f8f8f8" stroke-width="10" stroke-linecap="round"></line> <line x1="16" y1="272" x2="16" y2="336" stroke="#f8f8f8" stroke-width="10" stroke-linecap="round"></line> <line x1="16" y1="-144" x2="16" y2="-80" stroke="#e2e2e2" stroke-width="10" stroke-linecap="round"></line> <line x1="16" y1="112" x2="16" y2="176" stroke="#e2e2e2" stroke-width="10" stroke-linecap="round"></line> <line x1="16" y1="368" x2="16" y2="432" stroke="#e2e2e2" stroke-width="10" stroke-linecap="round"></line> <line x1="16" y1="-48" x2="16" y2="-16" stroke="#979797" stroke-width="10" stroke-linecap="round"></line> <line x1="16" y1="208" x2="16" y2="240" stroke="#979797" stroke-width="10" stroke-linecap="round"></line> <line x1="16" y1="464" x2="16" y2="496" stroke="#979797" stroke-width="10" stroke-linecap="round"></line> <animateTransform attributeName="transform" type="translate" repeatCount="indefinite" dur="33.333333333333336s" keyTimes="0;1" values="0 0;0 -256"></animateTransform>
    </g> <g> <line x1="48" y1="-272" x2="48" y2="-208" stroke="#6a6a6a" stroke-width="10" stroke-linecap="round"></line> <line x1="48" y1="-16" x2="48" y2="48" stroke="#6a6a6a" stroke-width="10" stroke-linecap="round"></line> <line x1="48" y1="240" x2="48" y2="304" stroke="#6a6a6a" stroke-width="10" stroke-linecap="round"></line> <line x1="48" y1="-176" x2="48" y2="-144" stroke="#f8f8f8" stroke-width="10" stroke-linecap="round"></line> <line x1="48" y1="80" x2="48" y2="112" stroke="#f8f8f8" stroke-width="10" stroke-linecap="round"></line> <line x1="48" y1="336" x2="48" y2="368" stroke="#f8f8f8" stroke-width="10" stroke-linecap="round"></line> <line x1="48" y1="-112" x2="48" y2="-48" stroke="#6a6a6a" stroke-width="10" stroke-linecap="round"></line> <line x1="48" y1="144" x2="48" y2="208" stroke="#6a6a6a" stroke-width="10" stroke-linecap="round"></line> <line x1="48" y1="400" x2="48" y2="464" stroke="#6a6a6a" stroke-width="10" stroke-linecap="round"></line> <line x1="48" y1="-16" x2="48" y2="48" stroke="#6a6a6a" stroke-width="10" stroke-linecap="round"></line> <line x1="48" y1="240" x2="48" y2="304" stroke="#6a6a6a" stroke-width="10" stroke-linecap="round"></line> <line x1="48" y1="496" x2="48" y2="560" stroke="#6a6a6a" stroke-width="10" stroke-linecap="round"></line> <animateTransform attributeName="transform" type="translate" repeatCount="indefinite" dur="33.333333333333336s" keyTimes="0;1" values="0 0;0 256"></animateTransform>
    </g> <g> <line x1="80" y1="-240" x2="80" y2="-208" stroke="#979797" stroke-width="10" stroke-linecap="round"></line> <line x1="80" y1="16" x2="80" y2="48" stroke="#979797" stroke-width="10" stroke-linecap="round"></line> <line x1="80" y1="272" x2="80" y2="304" stroke="#979797" stroke-width="10" stroke-linecap="round"></line> <line x1="80" y1="-176" x2="80" y2="-144" stroke="#979797" stroke-width="10" stroke-linecap="round"></line> <line x1="80" y1="80" x2="80" y2="112" stroke="#979797" stroke-width="10" stroke-linecap="round"></line> <line x1="80" y1="336" x2="80" y2="368" stroke="#979797" stroke-width="10" stroke-linecap="round"></line> <line x1="80" y1="-112" x2="80" y2="-80" stroke="#e2e2e2" stroke-width="10" stroke-linecap="round"></line> <line x1="80" y1="144" x2="80" y2="176" stroke="#e2e2e2" stroke-width="10" stroke-linecap="round"></line> <line x1="80" y1="400" x2="80" y2="432" stroke="#e2e2e2" stroke-width="10" stroke-linecap="round"></line> <line x1="80" y1="-48" x2="80" y2="-16" stroke="#979797" stroke-width="10" stroke-linecap="round"></line> <line x1="80" y1="208" x2="80" y2="240" stroke="#979797" stroke-width="10" stroke-linecap="round"></line> <line x1="80" y1="464" x2="80" y2="496" stroke="#979797" stroke-width="10" stroke-linecap="round"></line> <animateTransform attributeName="transform" type="translate" repeatCount="indefinite" dur="100s" keyTimes="0;1" values="0 0;0 256"></animateTransform>
    </g> <g> <line x1="112" y1="-272" x2="112" y2="-208" stroke="#979797" stroke-width="10" stroke-linecap="round"></line> <line x1="112" y1="-16" x2="112" y2="48" stroke="#979797" stroke-width="10" stroke-linecap="round"></line> <line x1="112" y1="240" x2="112" y2="304" stroke="#979797" stroke-width="10" stroke-linecap="round"></line> <line x1="112" y1="-176" x2="112" y2="-112" stroke="#979797" stroke-width="10" stroke-linecap="round"></line> <line x1="112" y1="80" x2="112" y2="144" stroke="#979797" stroke-width="10" stroke-linecap="round"></line> <line x1="112" y1="336" x2="112" y2="400" stroke="#979797" stroke-width="10" stroke-linecap="round"></line> <line x1="112" y1="-80" x2="112" y2="-48" stroke="#979797" stroke-width="10" stroke-linecap="round"></line> <line x1="112" y1="176" x2="112" y2="208" stroke="#979797" stroke-width="10" stroke-linecap="round"></line> <line x1="112" y1="432" x2="112" y2="464" stroke="#979797" stroke-width="10" stroke-linecap="round"></line> <line x1="112" y1="-16" x2="112" y2="48" stroke="#979797" stroke-width="10" stroke-linecap="round"></line> <line x1="112" y1="240" x2="112" y2="304" stroke="#979797" stroke-width="10" stroke-linecap="round"></line> <line x1="112" y1="496" x2="112" y2="560" stroke="#979797" stroke-width="10" stroke-linecap="round"></line> <animateTransform attributeName="transform" type="translate" repeatCount="indefinite" dur="33.333333333333336s" keyTimes="0;1" values="0 0;0 256"></animateTransform>
    </g> <g> <line x1="144" y1="-272" x2="144" y2="-208" stroke="#bdbdbd" stroke-width="10" stroke-linecap="round"></line> <line x1="144" y1="-16" x2="144" y2="48" stroke="#bdbdbd" stroke-width="10" stroke-linecap="round"></line> <line x1="144" y1="240" x2="144" y2="304" stroke="#bdbdbd" stroke-width="10" stroke-linecap="round"></line> <line x1="144" y1="-176" x2="144" y2="-112" stroke="#979797" stroke-width="10" stroke-linecap="round"></line> <line x1="144" y1="80" x2="144" y2="144" stroke="#979797" stroke-width="10" stroke-linecap="round"></line> <line x1="144" y1="336" x2="144" y2="400" stroke="#979797" stroke-width="10" stroke-linecap="round"></line> <line x1="144" y1="-80" x2="144" y2="48" stroke="#bdbdbd" stroke-width="10" stroke-linecap="round"></line> <line x1="144" y1="176" x2="144" y2="304" stroke="#bdbdbd" stroke-width="10" stroke-linecap="round"></line> <line x1="144" y1="432" x2="144" y2="560" stroke="#bdbdbd" stroke-width="10" stroke-linecap="round"></line> <animateTransform attributeName="transform" type="translate" repeatCount="indefinite" dur="33.333333333333336s" keyTimes="0;1" values="0 0;0 -256"></animateTransform>
    </g> <g> <line x1="176" y1="-240" x2="176" y2="-208" stroke="#6a6a6a" stroke-width="10" stroke-linecap="round"></line> <line x1="176" y1="16" x2="176" y2="48" stroke="#6a6a6a" stroke-width="10" stroke-linecap="round"></line> <line x1="176" y1="272" x2="176" y2="304" stroke="#6a6a6a" stroke-width="10" stroke-linecap="round"></line> <line x1="176" y1="-176" x2="176" y2="-112" stroke="#bdbdbd" stroke-width="10" stroke-linecap="round"></line> <line x1="176" y1="80" x2="176" y2="144" stroke="#bdbdbd" stroke-width="10" stroke-linecap="round"></line> <line x1="176" y1="336" x2="176" y2="400" stroke="#bdbdbd" stroke-width="10" stroke-linecap="round"></line> <line x1="176" y1="-80" x2="176" y2="-16" stroke="#6a6a6a" stroke-width="10" stroke-linecap="round"></line> <line x1="176" y1="176" x2="176" y2="240" stroke="#6a6a6a" stroke-width="10" stroke-linecap="round"></line> <line x1="176" y1="432" x2="176" y2="496" stroke="#6a6a6a" stroke-width="10" stroke-linecap="round"></line> <animateTransform attributeName="transform" type="translate" repeatCount="indefinite" dur="100s" keyTimes="0;1" values="0 0;0 -256"></animateTransform>
    </g> <g> <line x1="208" y1="-272" x2="208" y2="-240" stroke="#979797" stroke-width="10" stroke-linecap="round"></line> <line x1="208" y1="-16" x2="208" y2="16" stroke="#979797" stroke-width="10" stroke-linecap="round"></line> <line x1="208" y1="240" x2="208" y2="272" stroke="#979797" stroke-width="10" stroke-linecap="round"></line> <line x1="208" y1="-208" x2="208" y2="-176" stroke="#979797" stroke-width="10" stroke-linecap="round"></line> <line x1="208" y1="48" x2="208" y2="80" stroke="#979797" stroke-width="10" stroke-linecap="round"></line> <line x1="208" y1="304" x2="208" y2="336" stroke="#979797" stroke-width="10" stroke-linecap="round"></line> <line x1="208" y1="-144" x2="208" y2="-80" stroke="#f8f8f8" stroke-width="10" stroke-linecap="round"></line> <line x1="208" y1="112" x2="208" y2="176" stroke="#f8f8f8" stroke-width="10" stroke-linecap="round"></line> <line x1="208" y1="368" x2="208" y2="432" stroke="#f8f8f8" stroke-width="10" stroke-linecap="round"></line> <line x1="208" y1="-48" x2="208" y2="16" stroke="#979797" stroke-width="10" stroke-linecap="round"></line> <line x1="208" y1="208" x2="208" y2="272" stroke="#979797" stroke-width="10" stroke-linecap="round"></line> <line x1="208" y1="464" x2="208" y2="528" stroke="#979797" stroke-width="10" stroke-linecap="round"></line> <animateTransform attributeName="transform" type="translate" repeatCount="indefinite" dur="33.333333333333336s" keyTimes="0;1" values="0 0;0 256"></animateTransform>
    </g> <g> <line x1="240" y1="-272" x2="240" y2="-240" stroke="#e2e2e2" stroke-width="10" stroke-linecap="round"></line> <line x1="240" y1="-16" x2="240" y2="16" stroke="#e2e2e2" stroke-width="10" stroke-linecap="round"></line> <line x1="240" y1="240" x2="240" y2="272" stroke="#e2e2e2" stroke-width="10" stroke-linecap="round"></line> <line x1="240" y1="-208" x2="240" y2="-176" stroke="#979797" stroke-width="10" stroke-linecap="round"></line> <line x1="240" y1="48" x2="240" y2="80" stroke="#979797" stroke-width="10" stroke-linecap="round"></line> <line x1="240" y1="304" x2="240" y2="336" stroke="#979797" stroke-width="10" stroke-linecap="round"></line> <line x1="240" y1="-144" x2="240" y2="-80" stroke="#979797" stroke-width="10" stroke-linecap="round"></line> <line x1="240" y1="112" x2="240" y2="176" stroke="#979797" stroke-width="10" stroke-linecap="round"></line> <line x1="240" y1="368" x2="240" y2="432" stroke="#979797" stroke-width="10" stroke-linecap="round"></line> <line x1="240" y1="-48" x2="240" y2="16" stroke="#e2e2e2" stroke-width="10" stroke-linecap="round"></line> <line x1="240" y1="208" x2="240" y2="272" stroke="#e2e2e2" stroke-width="10" stroke-linecap="round"></line> <line x1="240" y1="464" x2="240" y2="528" stroke="#e2e2e2" stroke-width="10" stroke-linecap="round"></line> <animateTransform attributeName="transform" type="translate" repeatCount="indefinite" dur="100s" keyTimes="0;1" values="0 0;0 256"></animateTransform>
    </g></g>
      </pattern>
    </defs>
    <rect x="0" y="0" width="100%" height="100vh" fill="url(#pid-0.6756282511096747)"></rect>
    </svg>