<svg xmlns="http://www.w3.org/2000/svg" xmlns:xlink="http://www.w3.org/1999/xlink" style="opacity: 0.42; margin:auto;background:#f1f2f3;display:block;z-index:1;position:relative" width="100%" height="100%" preserveAspectRatio="xMidYMid" viewBox="0 0 100% 100%">
    <defs>
      <pattern id="pid-0.4499059630448061" x="0" y="0" width="220.16" height="220.16" patternUnits="userSpaceOnUse" style="transform: rotate(-45deg);">
        <g transform="scale(0.86)"><g>
      <line x1="140.30211866712003" x2="117.93291483177538" y1="112.20275028049932" y2="134.57195411584397" stroke-width="7" stroke="#c44341" stroke-linecap="round"></line><line x1="140.30211866712003" x2="117.93291483177538" y1="-399.79724971950066" y2="-377.42804588415606" stroke-width="7" stroke="#c44341" stroke-linecap="round"></line><line x1="396.30211866712" x2="373.9329148317754" y1="-399.79724971950066" y2="-377.42804588415606" stroke-width="7" stroke="#c44341" stroke-linecap="round"></line><line x1="652.30211866712" x2="629.9329148317754" y1="-399.79724971950066" y2="-377.42804588415606" stroke-width="7" stroke="#c44341" stroke-linecap="round"></line><line x1="140.30211866712003" x2="117.93291483177538" y1="-143.79724971950068" y2="-121.42804588415603" stroke-width="7" stroke="#c44341" stroke-linecap="round"></line><line x1="396.30211866712" x2="373.9329148317754" y1="-143.79724971950068" y2="-121.42804588415603" stroke-width="7" stroke="#c44341" stroke-linecap="round"></line><line x1="652.30211866712" x2="629.9329148317754" y1="-143.79724971950068" y2="-121.42804588415603" stroke-width="7" stroke="#c44341" stroke-linecap="round"></line><line x1="140.30211866712003" x2="117.93291483177538" y1="112.20275028049932" y2="134.57195411584397" stroke-width="7" stroke="#c44341" stroke-linecap="round"></line><line x1="396.30211866712" x2="373.9329148317754" y1="112.20275028049932" y2="134.57195411584397" stroke-width="7" stroke="#c44341" stroke-linecap="round"></line><line x1="652.30211866712" x2="629.9329148317754" y1="112.20275028049932" y2="134.57195411584397" stroke-width="7" stroke="#c44341" stroke-linecap="round"></line><line x1="177.95280226435895" x2="142.82741574328602" y1="74.70663075588814" y2="109.83201727696107" stroke-width="7" stroke="#c44341" stroke-linecap="round"></line><line x1="177.95280226435895" x2="142.82741574328602" y1="-437.2933692441119" y2="-402.1679827230389" stroke-width="7" stroke="#c44341" stroke-linecap="round"></line><line x1="433.952802264359" x2="398.827415743286" y1="-437.2933692441119" y2="-402.1679827230389" stroke-width="7" stroke="#c44341" stroke-linecap="round"></line><line x1="689.952802264359" x2="654.827415743286" y1="-437.2933692441119" y2="-402.1679827230389" stroke-width="7" stroke="#c44341" stroke-linecap="round"></line><line x1="177.95280226435895" x2="142.82741574328602" y1="-181.29336924411186" y2="-146.16798272303893" stroke-width="7" stroke="#c44341" stroke-linecap="round"></line><line x1="433.952802264359" x2="398.827415743286" y1="-181.29336924411186" y2="-146.16798272303893" stroke-width="7" stroke="#c44341" stroke-linecap="round"></line><line x1="689.952802264359" x2="654.827415743286" y1="-181.29336924411186" y2="-146.16798272303893" stroke-width="7" stroke="#c44341" stroke-linecap="round"></line><line x1="177.95280226435895" x2="142.82741574328602" y1="74.70663075588814" y2="109.83201727696107" stroke-width="7" stroke="#c44341" stroke-linecap="round"></line><line x1="433.952802264359" x2="398.827415743286" y1="74.70663075588814" y2="109.83201727696107" stroke-width="7" stroke="#c44341" stroke-linecap="round"></line><line x1="689.952802264359" x2="654.827415743286" y1="74.70663075588814" y2="109.83201727696107" stroke-width="7" stroke="#c44341" stroke-linecap="round"></line><line x1="41.772847522973684" x2="17.850476000436906" y1="232.36634850487462" y2="256.2887200274114" stroke-width="7" stroke="#c44341" stroke-linecap="round"></line><line x1="41.772847522973684" x2="17.850476000436906" y1="-279.6336514951254" y2="-255.7112799725886" stroke-width="7" stroke="#c44341" stroke-linecap="round"></line><line x1="297.7728475229737" x2="273.8504760004369" y1="-279.6336514951254" y2="-255.7112799725886" stroke-width="7" stroke="#c44341" stroke-linecap="round"></line><line x1="553.7728475229737" x2="529.8504760004369" y1="-279.6336514951254" y2="-255.7112799725886" stroke-width="7" stroke="#c44341" stroke-linecap="round"></line><line x1="41.772847522973684" x2="17.850476000436906" y1="-23.633651495125378" y2="0.2887200274113866" stroke-width="7" stroke="#c44341" stroke-linecap="round"></line><line x1="297.7728475229737" x2="273.8504760004369" y1="-23.633651495125378" y2="0.2887200274113866" stroke-width="7" stroke="#c44341" stroke-linecap="round"></line><line x1="553.7728475229737" x2="529.8504760004369" y1="-23.633651495125378" y2="0.2887200274113866" stroke-width="7" stroke="#c44341" stroke-linecap="round"></line><line x1="41.772847522973684" x2="17.850476000436906" y1="232.36634850487462" y2="256.2887200274114" stroke-width="7" stroke="#c44341" stroke-linecap="round"></line><line x1="297.7728475229737" x2="273.8504760004369" y1="232.36634850487462" y2="256.2887200274114" stroke-width="7" stroke="#c44341" stroke-linecap="round"></line><line x1="553.7728475229737" x2="529.8504760004369" y1="232.36634850487462" y2="256.2887200274114" stroke-width="7" stroke="#c44341" stroke-linecap="round"></line><line x1="225.93138734474314" x2="186.11649909390633" y1="16.56381112396826" y2="56.37869937480508" stroke-width="7" stroke="#c44341" stroke-linecap="round"></line><line x1="225.93138734474314" x2="186.11649909390633" y1="-495.43618887603174" y2="-455.6213006251949" stroke-width="7" stroke="#c44341" stroke-linecap="round"></line><line x1="481.93138734474314" x2="442.1164990939063" y1="-495.43618887603174" y2="-455.6213006251949" stroke-width="7" stroke="#c44341" stroke-linecap="round"></line><line x1="737.9313873447431" x2="698.1164990939063" y1="-495.43618887603174" y2="-455.6213006251949" stroke-width="7" stroke="#c44341" stroke-linecap="round"></line><line x1="225.93138734474314" x2="186.11649909390633" y1="-239.43618887603174" y2="-199.62130062519492" stroke-width="7" stroke="#c44341" stroke-linecap="round"></line><line x1="481.93138734474314" x2="442.1164990939063" y1="-239.43618887603174" y2="-199.62130062519492" stroke-width="7" stroke="#c44341" stroke-linecap="round"></line><line x1="737.9313873447431" x2="698.1164990939063" y1="-239.43618887603174" y2="-199.62130062519492" stroke-width="7" stroke="#c44341" stroke-linecap="round"></line><line x1="225.93138734474314" x2="186.11649909390633" y1="16.56381112396826" y2="56.37869937480508" stroke-width="7" stroke="#c44341" stroke-linecap="round"></line><line x1="481.93138734474314" x2="442.1164990939063" y1="16.56381112396826" y2="56.37869937480508" stroke-width="7" stroke="#c44341" stroke-linecap="round"></line><line x1="737.9313873447431" x2="698.1164990939063" y1="16.56381112396826" y2="56.37869937480508" stroke-width="7" stroke="#c44341" stroke-linecap="round"></line><line x1="140.04816839395505" x2="103.67174573746286" y1="28.96869496329186" y2="65.34511761978405" stroke-width="7" stroke="#c44341" stroke-linecap="round"></line><line x1="140.04816839395505" x2="103.67174573746286" y1="-483.03130503670815" y2="-446.65488238021595" stroke-width="7" stroke="#c44341" stroke-linecap="round"></line><line x1="396.04816839395505" x2="359.67174573746286" y1="-483.03130503670815" y2="-446.65488238021595" stroke-width="7" stroke="#c44341" stroke-linecap="round"></line><line x1="652.048168393955" x2="615.6717457374629" y1="-483.03130503670815" y2="-446.65488238021595" stroke-width="7" stroke="#c44341" stroke-linecap="round"></line><line x1="140.04816839395505" x2="103.67174573746286" y1="-227.03130503670815" y2="-190.65488238021595" stroke-width="7" stroke="#c44341" stroke-linecap="round"></line><line x1="396.04816839395505" x2="359.67174573746286" y1="-227.03130503670815" y2="-190.65488238021595" stroke-width="7" stroke="#c44341" stroke-linecap="round"></line><line x1="652.048168393955" x2="615.6717457374629" y1="-227.03130503670815" y2="-190.65488238021595" stroke-width="7" stroke="#c44341" stroke-linecap="round"></line><line x1="140.04816839395505" x2="103.67174573746286" y1="28.96869496329186" y2="65.34511761978405" stroke-width="7" stroke="#c44341" stroke-linecap="round"></line><line x1="396.04816839395505" x2="359.67174573746286" y1="28.96869496329186" y2="65.34511761978405" stroke-width="7" stroke="#c44341" stroke-linecap="round"></line><line x1="652.048168393955" x2="615.6717457374629" y1="28.96869496329186" y2="65.34511761978405" stroke-width="7" stroke="#c44341" stroke-linecap="round"></line><line x1="207.3036689927115" x2="188.6712679739839" y1="8.827805021683886" y2="27.460206040411506" stroke-width="7" stroke="#c44341" stroke-linecap="round"></line><line x1="207.3036689927115" x2="188.6712679739839" y1="-503.1721949783161" y2="-484.5397939595885" stroke-width="7" stroke="#c44341" stroke-linecap="round"></line><line x1="463.3036689927115" x2="444.6712679739839" y1="-503.1721949783161" y2="-484.5397939595885" stroke-width="7" stroke="#c44341" stroke-linecap="round"></line><line x1="719.3036689927114" x2="700.671267973984" y1="-503.1721949783161" y2="-484.5397939595885" stroke-width="7" stroke="#c44341" stroke-linecap="round"></line><line x1="207.3036689927115" x2="188.6712679739839" y1="-247.1721949783161" y2="-228.5397939595885" stroke-width="7" stroke="#c44341" stroke-linecap="round"></line><line x1="463.3036689927115" x2="444.6712679739839" y1="-247.1721949783161" y2="-228.5397939595885" stroke-width="7" stroke="#c44341" stroke-linecap="round"></line><line x1="719.3036689927114" x2="700.671267973984" y1="-247.1721949783161" y2="-228.5397939595885" stroke-width="7" stroke="#c44341" stroke-linecap="round"></line><line x1="207.3036689927115" x2="188.6712679739839" y1="8.827805021683886" y2="27.460206040411506" stroke-width="7" stroke="#c44341" stroke-linecap="round"></line><line x1="463.3036689927115" x2="444.6712679739839" y1="8.827805021683886" y2="27.460206040411506" stroke-width="7" stroke="#c44341" stroke-linecap="round"></line><line x1="719.3036689927114" x2="700.671267973984" y1="8.827805021683886" y2="27.460206040411506" stroke-width="7" stroke="#c44341" stroke-linecap="round"></line><line x1="170.501839252931" x2="149.26373634224052" y1="104.71767600715772" y2="125.95577891784818" stroke-width="7" stroke="#c44341" stroke-linecap="round"></line><line x1="170.501839252931" x2="149.26373634224052" y1="-407.2823239928423" y2="-386.0442210821518" stroke-width="7" stroke="#c44341" stroke-linecap="round"></line><line x1="426.501839252931" x2="405.2637363422405" y1="-407.2823239928423" y2="-386.0442210821518" stroke-width="7" stroke="#c44341" stroke-linecap="round"></line><line x1="682.501839252931" x2="661.2637363422405" y1="-407.2823239928423" y2="-386.0442210821518" stroke-width="7" stroke="#c44341" stroke-linecap="round"></line><line x1="170.501839252931" x2="149.26373634224052" y1="-151.2823239928423" y2="-130.0442210821518" stroke-width="7" stroke="#c44341" stroke-linecap="round"></line><line x1="426.501839252931" x2="405.2637363422405" y1="-151.2823239928423" y2="-130.0442210821518" stroke-width="7" stroke="#c44341" stroke-linecap="round"></line><line x1="682.501839252931" x2="661.2637363422405" y1="-151.2823239928423" y2="-130.0442210821518" stroke-width="7" stroke="#c44341" stroke-linecap="round"></line><line x1="170.501839252931" x2="149.26373634224052" y1="104.71767600715772" y2="125.95577891784818" stroke-width="7" stroke="#c44341" stroke-linecap="round"></line><line x1="426.501839252931" x2="405.2637363422405" y1="104.71767600715772" y2="125.95577891784818" stroke-width="7" stroke="#c44341" stroke-linecap="round"></line><line x1="682.501839252931" x2="661.2637363422405" y1="104.71767600715772" y2="125.95577891784818" stroke-width="7" stroke="#c44341" stroke-linecap="round"></line><line x1="226.12406610336686" x2="202.88568492496543" y1="160.64525181614792" y2="183.88363299454934" stroke-width="7" stroke="#c44341" stroke-linecap="round"></line><line x1="226.12406610336686" x2="202.88568492496543" y1="-351.35474818385205" y2="-328.1163670054507" stroke-width="7" stroke="#c44341" stroke-linecap="round"></line><line x1="482.1240661033669" x2="458.8856849249654" y1="-351.35474818385205" y2="-328.1163670054507" stroke-width="7" stroke="#c44341" stroke-linecap="round"></line><line x1="738.1240661033669" x2="714.8856849249654" y1="-351.35474818385205" y2="-328.1163670054507" stroke-width="7" stroke="#c44341" stroke-linecap="round"></line><line x1="226.12406610336686" x2="202.88568492496543" y1="-95.35474818385208" y2="-72.11636700545066" stroke-width="7" stroke="#c44341" stroke-linecap="round"></line><line x1="482.1240661033669" x2="458.8856849249654" y1="-95.35474818385208" y2="-72.11636700545066" stroke-width="7" stroke="#c44341" stroke-linecap="round"></line><line x1="738.1240661033669" x2="714.8856849249654" y1="-95.35474818385208" y2="-72.11636700545066" stroke-width="7" stroke="#c44341" stroke-linecap="round"></line><line x1="226.12406610336686" x2="202.88568492496543" y1="160.64525181614792" y2="183.88363299454934" stroke-width="7" stroke="#c44341" stroke-linecap="round"></line><line x1="482.1240661033669" x2="458.8856849249654" y1="160.64525181614792" y2="183.88363299454934" stroke-width="7" stroke="#c44341" stroke-linecap="round"></line><line x1="738.1240661033669" x2="714.8856849249654" y1="160.64525181614792" y2="183.88363299454934" stroke-width="7" stroke="#c44341" stroke-linecap="round"></line><line x1="86.3515058540369" x2="67.43569214416695" y1="201.25985263587503" y2="220.175666345745" stroke-width="7" stroke="#979797" stroke-linecap="round"></line><line x1="86.3515058540369" x2="67.43569214416695" y1="-310.74014736412494" y2="-291.82433365425504" stroke-width="7" stroke="#979797" stroke-linecap="round"></line><line x1="342.3515058540369" x2="323.435692144167" y1="-310.74014736412494" y2="-291.82433365425504" stroke-width="7" stroke="#979797" stroke-linecap="round"></line><line x1="598.3515058540369" x2="579.435692144167" y1="-310.74014736412494" y2="-291.82433365425504" stroke-width="7" stroke="#979797" stroke-linecap="round"></line><line x1="86.3515058540369" x2="67.43569214416695" y1="-54.740147364124965" y2="-35.824333654255014" stroke-width="7" stroke="#979797" stroke-linecap="round"></line><line x1="342.3515058540369" x2="323.435692144167" y1="-54.740147364124965" y2="-35.824333654255014" stroke-width="7" stroke="#979797" stroke-linecap="round"></line><line x1="598.3515058540369" x2="579.435692144167" y1="-54.740147364124965" y2="-35.824333654255014" stroke-width="7" stroke="#979797" stroke-linecap="round"></line><line x1="86.3515058540369" x2="67.43569214416695" y1="201.25985263587503" y2="220.175666345745" stroke-width="7" stroke="#979797" stroke-linecap="round"></line><line x1="342.3515058540369" x2="323.435692144167" y1="201.25985263587503" y2="220.175666345745" stroke-width="7" stroke="#979797" stroke-linecap="round"></line><line x1="598.3515058540369" x2="579.435692144167" y1="201.25985263587503" y2="220.175666345745" stroke-width="7" stroke="#979797" stroke-linecap="round"></line><line x1="170.19215610682656" x2="134.29772242386665" y1="195.69650948875758" y2="231.5909431717175" stroke-width="7" stroke="#c44341" stroke-linecap="round"></line><line x1="170.19215610682656" x2="134.29772242386665" y1="-316.30349051124244" y2="-280.4090568282825" stroke-width="7" stroke="#c44341" stroke-linecap="round"></line><line x1="426.1921561068266" x2="390.2977224238666" y1="-316.30349051124244" y2="-280.4090568282825" stroke-width="7" stroke="#c44341" stroke-linecap="round"></line><line x1="682.1921561068266" x2="646.2977224238666" y1="-316.30349051124244" y2="-280.4090568282825" stroke-width="7" stroke="#c44341" stroke-linecap="round"></line><line x1="170.19215610682656" x2="134.29772242386665" y1="-60.303490511242416" y2="-24.409056828282502" stroke-width="7" stroke="#c44341" stroke-linecap="round"></line><line x1="426.1921561068266" x2="390.2977224238666" y1="-60.303490511242416" y2="-24.409056828282502" stroke-width="7" stroke="#c44341" stroke-linecap="round"></line><line x1="682.1921561068266" x2="646.2977224238666" y1="-60.303490511242416" y2="-24.409056828282502" stroke-width="7" stroke="#c44341" stroke-linecap="round"></line><line x1="170.19215610682656" x2="134.29772242386665" y1="195.69650948875758" y2="231.5909431717175" stroke-width="7" stroke="#c44341" stroke-linecap="round"></line><line x1="426.1921561068266" x2="390.2977224238666" y1="195.69650948875758" y2="231.5909431717175" stroke-width="7" stroke="#c44341" stroke-linecap="round"></line><line x1="682.1921561068266" x2="646.2977224238666" y1="195.69650948875758" y2="231.5909431717175" stroke-width="7" stroke="#c44341" stroke-linecap="round"></line><line x1="59.67995526187052" x2="30.45164494384109" y1="164.17121754652118" y2="193.39952786455063" stroke-width="7" stroke="#c44341" stroke-linecap="round"></line><line x1="59.67995526187052" x2="30.45164494384109" y1="-347.8287824534788" y2="-318.60047213544937" stroke-width="7" stroke="#c44341" stroke-linecap="round"></line><line x1="315.67995526187053" x2="286.4516449438411" y1="-347.8287824534788" y2="-318.60047213544937" stroke-width="7" stroke="#c44341" stroke-linecap="round"></line><line x1="571.6799552618705" x2="542.4516449438411" y1="-347.8287824534788" y2="-318.60047213544937" stroke-width="7" stroke="#c44341" stroke-linecap="round"></line><line x1="59.67995526187052" x2="30.45164494384109" y1="-91.82878245347882" y2="-62.600472135449365" stroke-width="7" stroke="#c44341" stroke-linecap="round"></line><line x1="315.67995526187053" x2="286.4516449438411" y1="-91.82878245347882" y2="-62.600472135449365" stroke-width="7" stroke="#c44341" stroke-linecap="round"></line><line x1="571.6799552618705" x2="542.4516449438411" y1="-91.82878245347882" y2="-62.600472135449365" stroke-width="7" stroke="#c44341" stroke-linecap="round"></line><line x1="59.67995526187052" x2="30.45164494384109" y1="164.17121754652118" y2="193.39952786455063" stroke-width="7" stroke="#c44341" stroke-linecap="round"></line><line x1="315.67995526187053" x2="286.4516449438411" y1="164.17121754652118" y2="193.39952786455063" stroke-width="7" stroke="#c44341" stroke-linecap="round"></line><line x1="571.6799552618705" x2="542.4516449438411" y1="164.17121754652118" y2="193.39952786455063" stroke-width="7" stroke="#c44341" stroke-linecap="round"></line>
      <animateTransform attributeName="transform" type="translate" values="0 0;-256 256" keyTimes="0;1" repeatCount="indefinite" dur="50s"></animateTransform>
    </g><g>
      <line x1="237.6783733971386" x2="217.48424537486852" y1="82.40994318176102" y2="102.60407120403114" stroke-width="7" stroke="#979797" stroke-linecap="round"></line><line x1="237.6783733971386" x2="217.48424537486852" y1="-429.59005681823896" y2="-409.39592879596887" stroke-width="7" stroke="#979797" stroke-linecap="round"></line><line x1="493.6783733971386" x2="473.4842453748685" y1="-429.59005681823896" y2="-409.39592879596887" stroke-width="7" stroke="#979797" stroke-linecap="round"></line><line x1="749.6783733971386" x2="729.4842453748686" y1="-429.59005681823896" y2="-409.39592879596887" stroke-width="7" stroke="#979797" stroke-linecap="round"></line><line x1="237.6783733971386" x2="217.48424537486852" y1="-173.59005681823896" y2="-153.39592879596887" stroke-width="7" stroke="#979797" stroke-linecap="round"></line><line x1="493.6783733971386" x2="473.4842453748685" y1="-173.59005681823896" y2="-153.39592879596887" stroke-width="7" stroke="#979797" stroke-linecap="round"></line><line x1="749.6783733971386" x2="729.4842453748686" y1="-173.59005681823896" y2="-153.39592879596887" stroke-width="7" stroke="#979797" stroke-linecap="round"></line><line x1="237.6783733971386" x2="217.48424537486852" y1="82.40994318176102" y2="102.60407120403114" stroke-width="7" stroke="#979797" stroke-linecap="round"></line><line x1="493.6783733971386" x2="473.4842453748685" y1="82.40994318176102" y2="102.60407120403114" stroke-width="7" stroke="#979797" stroke-linecap="round"></line><line x1="749.6783733971386" x2="729.4842453748686" y1="82.40994318176102" y2="102.60407120403114" stroke-width="7" stroke="#979797" stroke-linecap="round"></line><line x1="29.890385306695407" x2="8.397012373012446" y1="75.86981340157604" y2="97.363186335259" stroke-width="7" stroke="#979797" stroke-linecap="round"></line><line x1="29.890385306695407" x2="8.397012373012446" y1="-436.13018659842396" y2="-414.636813664741" stroke-width="7" stroke="#979797" stroke-linecap="round"></line><line x1="285.8903853066954" x2="264.39701237301244" y1="-436.13018659842396" y2="-414.636813664741" stroke-width="7" stroke="#979797" stroke-linecap="round"></line><line x1="541.8903853066954" x2="520.3970123730124" y1="-436.13018659842396" y2="-414.636813664741" stroke-width="7" stroke="#979797" stroke-linecap="round"></line><line x1="29.890385306695407" x2="8.397012373012446" y1="-180.13018659842396" y2="-158.636813664741" stroke-width="7" stroke="#979797" stroke-linecap="round"></line><line x1="285.8903853066954" x2="264.39701237301244" y1="-180.13018659842396" y2="-158.636813664741" stroke-width="7" stroke="#979797" stroke-linecap="round"></line><line x1="541.8903853066954" x2="520.3970123730124" y1="-180.13018659842396" y2="-158.636813664741" stroke-width="7" stroke="#979797" stroke-linecap="round"></line><line x1="29.890385306695407" x2="8.397012373012446" y1="75.86981340157604" y2="97.363186335259" stroke-width="7" stroke="#979797" stroke-linecap="round"></line><line x1="285.8903853066954" x2="264.39701237301244" y1="75.86981340157604" y2="97.363186335259" stroke-width="7" stroke="#979797" stroke-linecap="round"></line><line x1="541.8903853066954" x2="520.3970123730124" y1="75.86981340157604" y2="97.363186335259" stroke-width="7" stroke="#979797" stroke-linecap="round"></line><line x1="58.35848698380872" x2="20.12424114413463" y1="-18.893832075870108" y2="19.34041376380398" stroke-width="7" stroke="#979797" stroke-linecap="round"></line><line x1="58.35848698380872" x2="20.12424114413463" y1="-530.8938320758701" y2="-492.659586236196" stroke-width="7" stroke="#979797" stroke-linecap="round"></line><line x1="314.3584869838087" x2="276.12424114413466" y1="-530.8938320758701" y2="-492.659586236196" stroke-width="7" stroke="#979797" stroke-linecap="round"></line><line x1="570.3584869838087" x2="532.1242411441347" y1="-530.8938320758701" y2="-492.659586236196" stroke-width="7" stroke="#979797" stroke-linecap="round"></line><line x1="58.35848698380872" x2="20.12424114413463" y1="-274.89383207587014" y2="-236.65958623619602" stroke-width="7" stroke="#979797" stroke-linecap="round"></line><line x1="314.3584869838087" x2="276.12424114413466" y1="-274.89383207587014" y2="-236.65958623619602" stroke-width="7" stroke="#979797" stroke-linecap="round"></line><line x1="570.3584869838087" x2="532.1242411441347" y1="-274.89383207587014" y2="-236.65958623619602" stroke-width="7" stroke="#979797" stroke-linecap="round"></line><line x1="58.35848698380872" x2="20.12424114413463" y1="-18.893832075870108" y2="19.34041376380398" stroke-width="7" stroke="#979797" stroke-linecap="round"></line><line x1="314.3584869838087" x2="276.12424114413466" y1="-18.893832075870108" y2="19.34041376380398" stroke-width="7" stroke="#979797" stroke-linecap="round"></line><line x1="570.3584869838087" x2="532.1242411441347" y1="-18.893832075870108" y2="19.34041376380398" stroke-width="7" stroke="#979797" stroke-linecap="round"></line><line x1="58.35848698380872" x2="20.12424114413463" y1="237.1061679241299" y2="275.340413763804" stroke-width="7" stroke="#979797" stroke-linecap="round"></line><line x1="127.35590157778917" x2="104.75488803190818" y1="3.802437274794203" y2="26.40345082067519" stroke-width="7" stroke="#979797" stroke-linecap="round"></line><line x1="127.35590157778917" x2="104.75488803190818" y1="-508.1975627252058" y2="-485.5965491793248" stroke-width="7" stroke="#979797" stroke-linecap="round"></line><line x1="383.35590157778915" x2="360.7548880319082" y1="-508.1975627252058" y2="-485.5965491793248" stroke-width="7" stroke="#979797" stroke-linecap="round"></line><line x1="639.3559015777892" x2="616.7548880319082" y1="-508.1975627252058" y2="-485.5965491793248" stroke-width="7" stroke="#979797" stroke-linecap="round"></line><line x1="127.35590157778917" x2="104.75488803190818" y1="-252.19756272520578" y2="-229.59654917932482" stroke-width="7" stroke="#979797" stroke-linecap="round"></line><line x1="383.35590157778915" x2="360.7548880319082" y1="-252.19756272520578" y2="-229.59654917932482" stroke-width="7" stroke="#979797" stroke-linecap="round"></line><line x1="639.3559015777892" x2="616.7548880319082" y1="-252.19756272520578" y2="-229.59654917932482" stroke-width="7" stroke="#979797" stroke-linecap="round"></line><line x1="127.35590157778917" x2="104.75488803190818" y1="3.802437274794203" y2="26.40345082067519" stroke-width="7" stroke="#979797" stroke-linecap="round"></line><line x1="383.35590157778915" x2="360.7548880319082" y1="3.802437274794203" y2="26.40345082067519" stroke-width="7" stroke="#979797" stroke-linecap="round"></line><line x1="639.3559015777892" x2="616.7548880319082" y1="3.802437274794203" y2="26.40345082067519" stroke-width="7" stroke="#979797" stroke-linecap="round"></line><line x1="160.94472990209573" x2="141.9001825488711" y1="71.8276657834469" y2="90.8722131366715" stroke-width="7" stroke="#979797" stroke-linecap="round"></line><line x1="160.94472990209573" x2="141.9001825488711" y1="-440.1723342165531" y2="-421.1277868633285" stroke-width="7" stroke="#979797" stroke-linecap="round"></line><line x1="416.94472990209573" x2="397.9001825488711" y1="-440.1723342165531" y2="-421.1277868633285" stroke-width="7" stroke="#979797" stroke-linecap="round"></line><line x1="672.9447299020958" x2="653.900182548871" y1="-440.1723342165531" y2="-421.1277868633285" stroke-width="7" stroke="#979797" stroke-linecap="round"></line><line x1="160.94472990209573" x2="141.9001825488711" y1="-184.1723342165531" y2="-165.12778686332848" stroke-width="7" stroke="#979797" stroke-linecap="round"></line><line x1="416.94472990209573" x2="397.9001825488711" y1="-184.1723342165531" y2="-165.12778686332848" stroke-width="7" stroke="#979797" stroke-linecap="round"></line><line x1="672.9447299020958" x2="653.900182548871" y1="-184.1723342165531" y2="-165.12778686332848" stroke-width="7" stroke="#979797" stroke-linecap="round"></line><line x1="160.94472990209573" x2="141.9001825488711" y1="71.8276657834469" y2="90.8722131366715" stroke-width="7" stroke="#979797" stroke-linecap="round"></line><line x1="416.94472990209573" x2="397.9001825488711" y1="71.8276657834469" y2="90.8722131366715" stroke-width="7" stroke="#979797" stroke-linecap="round"></line><line x1="672.9447299020958" x2="653.900182548871" y1="71.8276657834469" y2="90.8722131366715" stroke-width="7" stroke="#979797" stroke-linecap="round"></line><line x1="102.81304875644118" x2="79.51139657467284" y1="98.2881217031587" y2="121.58977388492703" stroke-width="7" stroke="#979797" stroke-linecap="round"></line><line x1="102.81304875644118" x2="79.51139657467284" y1="-413.7118782968413" y2="-390.410226115073" stroke-width="7" stroke="#979797" stroke-linecap="round"></line><line x1="358.81304875644116" x2="335.51139657467286" y1="-413.7118782968413" y2="-390.410226115073" stroke-width="7" stroke="#979797" stroke-linecap="round"></line><line x1="614.8130487564412" x2="591.5113965746729" y1="-413.7118782968413" y2="-390.410226115073" stroke-width="7" stroke="#979797" stroke-linecap="round"></line><line x1="102.81304875644118" x2="79.51139657467284" y1="-157.7118782968413" y2="-134.410226115073" stroke-width="7" stroke="#979797" stroke-linecap="round"></line><line x1="358.81304875644116" x2="335.51139657467286" y1="-157.7118782968413" y2="-134.410226115073" stroke-width="7" stroke="#979797" stroke-linecap="round"></line><line x1="614.8130487564412" x2="591.5113965746729" y1="-157.7118782968413" y2="-134.410226115073" stroke-width="7" stroke="#979797" stroke-linecap="round"></line><line x1="102.81304875644118" x2="79.51139657467284" y1="98.2881217031587" y2="121.58977388492703" stroke-width="7" stroke="#979797" stroke-linecap="round"></line><line x1="358.81304875644116" x2="335.51139657467286" y1="98.2881217031587" y2="121.58977388492703" stroke-width="7" stroke="#979797" stroke-linecap="round"></line><line x1="614.8130487564412" x2="591.5113965746729" y1="98.2881217031587" y2="121.58977388492703" stroke-width="7" stroke="#979797" stroke-linecap="round"></line><line x1="97.48958630372385" x2="60.3930371657857" y1="9.676321144985309" y2="46.77287028292346" stroke-width="7" stroke="#979797" stroke-linecap="round"></line><line x1="97.48958630372385" x2="60.3930371657857" y1="-502.3236788550147" y2="-465.22712971707654" stroke-width="7" stroke="#979797" stroke-linecap="round"></line><line x1="353.48958630372385" x2="316.3930371657857" y1="-502.3236788550147" y2="-465.22712971707654" stroke-width="7" stroke="#979797" stroke-linecap="round"></line><line x1="609.4895863037239" x2="572.3930371657857" y1="-502.3236788550147" y2="-465.22712971707654" stroke-width="7" stroke="#979797" stroke-linecap="round"></line><line x1="97.48958630372385" x2="60.3930371657857" y1="-246.3236788550147" y2="-209.22712971707654" stroke-width="7" stroke="#979797" stroke-linecap="round"></line><line x1="353.48958630372385" x2="316.3930371657857" y1="-246.3236788550147" y2="-209.22712971707654" stroke-width="7" stroke="#979797" stroke-linecap="round"></line><line x1="609.4895863037239" x2="572.3930371657857" y1="-246.3236788550147" y2="-209.22712971707654" stroke-width="7" stroke="#979797" stroke-linecap="round"></line><line x1="97.48958630372385" x2="60.3930371657857" y1="9.676321144985309" y2="46.77287028292346" stroke-width="7" stroke="#979797" stroke-linecap="round"></line><line x1="353.48958630372385" x2="316.3930371657857" y1="9.676321144985309" y2="46.77287028292346" stroke-width="7" stroke="#979797" stroke-linecap="round"></line><line x1="609.4895863037239" x2="572.3930371657857" y1="9.676321144985309" y2="46.77287028292346" stroke-width="7" stroke="#979797" stroke-linecap="round"></line><line x1="162.896518894483" x2="124.67517665151712" y1="177.440191127478" y2="215.66153337044386" stroke-width="7" stroke="#979797" stroke-linecap="round"></line><line x1="162.896518894483" x2="124.67517665151712" y1="-334.559808872522" y2="-296.33846662955614" stroke-width="7" stroke="#979797" stroke-linecap="round"></line><line x1="418.896518894483" x2="380.6751766515171" y1="-334.559808872522" y2="-296.33846662955614" stroke-width="7" stroke="#979797" stroke-linecap="round"></line><line x1="674.896518894483" x2="636.6751766515172" y1="-334.559808872522" y2="-296.33846662955614" stroke-width="7" stroke="#979797" stroke-linecap="round"></line><line x1="162.896518894483" x2="124.67517665151712" y1="-78.55980887252201" y2="-40.33846662955614" stroke-width="7" stroke="#979797" stroke-linecap="round"></line><line x1="418.896518894483" x2="380.6751766515171" y1="-78.55980887252201" y2="-40.33846662955614" stroke-width="7" stroke="#979797" stroke-linecap="round"></line><line x1="674.896518894483" x2="636.6751766515172" y1="-78.55980887252201" y2="-40.33846662955614" stroke-width="7" stroke="#979797" stroke-linecap="round"></line><line x1="162.896518894483" x2="124.67517665151712" y1="177.440191127478" y2="215.66153337044386" stroke-width="7" stroke="#979797" stroke-linecap="round"></line><line x1="418.896518894483" x2="380.6751766515171" y1="177.440191127478" y2="215.66153337044386" stroke-width="7" stroke="#979797" stroke-linecap="round"></line><line x1="674.896518894483" x2="636.6751766515172" y1="177.440191127478" y2="215.66153337044386" stroke-width="7" stroke="#979797" stroke-linecap="round"></line><line x1="19.68044550065142" x2="-6.882032514552154" y1="174.6816468486886" y2="201.24412486389215" stroke-width="7" stroke="#979797" stroke-linecap="round"></line><line x1="19.68044550065142" x2="-6.882032514552154" y1="-337.3183531513114" y2="-310.7558751361079" stroke-width="7" stroke="#979797" stroke-linecap="round"></line><line x1="275.68044550065144" x2="249.11796748544785" y1="-337.3183531513114" y2="-310.7558751361079" stroke-width="7" stroke="#979797" stroke-linecap="round"></line><line x1="531.6804455006514" x2="505.1179674854478" y1="-337.3183531513114" y2="-310.7558751361079" stroke-width="7" stroke="#979797" stroke-linecap="round"></line><line x1="19.68044550065142" x2="-6.882032514552154" y1="-81.31835315131141" y2="-54.755875136107846" stroke-width="7" stroke="#979797" stroke-linecap="round"></line><line x1="275.68044550065144" x2="249.11796748544785" y1="-81.31835315131141" y2="-54.755875136107846" stroke-width="7" stroke="#979797" stroke-linecap="round"></line><line x1="531.6804455006514" x2="505.1179674854478" y1="-81.31835315131141" y2="-54.755875136107846" stroke-width="7" stroke="#979797" stroke-linecap="round"></line><line x1="19.68044550065142" x2="-6.882032514552154" y1="174.6816468486886" y2="201.24412486389215" stroke-width="7" stroke="#979797" stroke-linecap="round"></line><line x1="275.68044550065144" x2="249.11796748544785" y1="174.6816468486886" y2="201.24412486389215" stroke-width="7" stroke="#979797" stroke-linecap="round"></line><line x1="531.6804455006514" x2="505.1179674854478" y1="174.6816468486886" y2="201.24412486389215" stroke-width="7" stroke="#979797" stroke-linecap="round"></line><line x1="242.76578234735888" x2="222.186758024242" y1="81.68392471124088" y2="102.26294903435775" stroke-width="7" stroke="#979797" stroke-linecap="round"></line><line x1="242.76578234735888" x2="222.186758024242" y1="-430.3160752887591" y2="-409.73705096564225" stroke-width="7" stroke="#979797" stroke-linecap="round"></line><line x1="498.7657823473589" x2="478.186758024242" y1="-430.3160752887591" y2="-409.73705096564225" stroke-width="7" stroke="#979797" stroke-linecap="round"></line><line x1="754.7657823473589" x2="734.186758024242" y1="-430.3160752887591" y2="-409.73705096564225" stroke-width="7" stroke="#979797" stroke-linecap="round"></line><line x1="242.76578234735888" x2="222.186758024242" y1="-174.31607528875912" y2="-153.73705096564225" stroke-width="7" stroke="#979797" stroke-linecap="round"></line><line x1="498.7657823473589" x2="478.186758024242" y1="-174.31607528875912" y2="-153.73705096564225" stroke-width="7" stroke="#979797" stroke-linecap="round"></line><line x1="754.7657823473589" x2="734.186758024242" y1="-174.31607528875912" y2="-153.73705096564225" stroke-width="7" stroke="#979797" stroke-linecap="round"></line><line x1="242.76578234735888" x2="222.186758024242" y1="81.68392471124088" y2="102.26294903435775" stroke-width="7" stroke="#979797" stroke-linecap="round"></line><line x1="498.7657823473589" x2="478.186758024242" y1="81.68392471124088" y2="102.26294903435775" stroke-width="7" stroke="#979797" stroke-linecap="round"></line><line x1="754.7657823473589" x2="734.186758024242" y1="81.68392471124088" y2="102.26294903435775" stroke-width="7" stroke="#979797" stroke-linecap="round"></line><line x1="203.5685006115933" x2="168.90716368624467" y1="45.99157451007997" y2="80.65291143542859" stroke-width="7" stroke="#979797" stroke-linecap="round"></line><line x1="203.5685006115933" x2="168.90716368624467" y1="-466.00842548992" y2="-431.34708856457144" stroke-width="7" stroke="#979797" stroke-linecap="round"></line><line x1="459.5685006115933" x2="424.90716368624464" y1="-466.00842548992" y2="-431.34708856457144" stroke-width="7" stroke="#979797" stroke-linecap="round"></line><line x1="715.5685006115933" x2="680.9071636862446" y1="-466.00842548992" y2="-431.34708856457144" stroke-width="7" stroke="#979797" stroke-linecap="round"></line><line x1="203.5685006115933" x2="168.90716368624467" y1="-210.00842548992003" y2="-175.3470885645714" stroke-width="7" stroke="#979797" stroke-linecap="round"></line><line x1="459.5685006115933" x2="424.90716368624464" y1="-210.00842548992003" y2="-175.3470885645714" stroke-width="7" stroke="#979797" stroke-linecap="round"></line><line x1="715.5685006115933" x2="680.9071636862446" y1="-210.00842548992003" y2="-175.3470885645714" stroke-width="7" stroke="#979797" stroke-linecap="round"></line><line x1="203.5685006115933" x2="168.90716368624467" y1="45.99157451007997" y2="80.65291143542859" stroke-width="7" stroke="#979797" stroke-linecap="round"></line><line x1="459.5685006115933" x2="424.90716368624464" y1="45.99157451007997" y2="80.65291143542859" stroke-width="7" stroke="#979797" stroke-linecap="round"></line><line x1="715.5685006115933" x2="680.9071636862446" y1="45.99157451007997" y2="80.65291143542859" stroke-width="7" stroke="#979797" stroke-linecap="round"></line>
      <animateTransform attributeName="transform" type="translate" values="0 0;-256 256" keyTimes="0;1" repeatCount="indefinite" dur="25s"></animateTransform>
    </g><g>
      <line x1="20.231761176496267" x2="-15.515521484549541" y1="189.07594696944773" y2="224.82322963049353" stroke-width="7" stroke="#bdbdbd" stroke-linecap="round"></line><line x1="20.231761176496267" x2="-15.515521484549541" y1="-322.9240530305523" y2="-287.17677036950647" stroke-width="7" stroke="#bdbdbd" stroke-linecap="round"></line><line x1="276.23176117649626" x2="240.48447851545046" y1="-322.9240530305523" y2="-287.17677036950647" stroke-width="7" stroke="#bdbdbd" stroke-linecap="round"></line><line x1="532.2317611764963" x2="496.48447851545046" y1="-322.9240530305523" y2="-287.17677036950647" stroke-width="7" stroke="#bdbdbd" stroke-linecap="round"></line><line x1="20.231761176496267" x2="-15.515521484549541" y1="-66.92405303055227" y2="-31.17677036950647" stroke-width="7" stroke="#bdbdbd" stroke-linecap="round"></line><line x1="276.23176117649626" x2="240.48447851545046" y1="-66.92405303055227" y2="-31.17677036950647" stroke-width="7" stroke="#bdbdbd" stroke-linecap="round"></line><line x1="532.2317611764963" x2="496.48447851545046" y1="-66.92405303055227" y2="-31.17677036950647" stroke-width="7" stroke="#bdbdbd" stroke-linecap="round"></line><line x1="20.231761176496267" x2="-15.515521484549541" y1="189.07594696944773" y2="224.82322963049353" stroke-width="7" stroke="#bdbdbd" stroke-linecap="round"></line><line x1="276.23176117649626" x2="240.48447851545046" y1="189.07594696944773" y2="224.82322963049353" stroke-width="7" stroke="#bdbdbd" stroke-linecap="round"></line><line x1="532.2317611764963" x2="496.48447851545046" y1="189.07594696944773" y2="224.82322963049353" stroke-width="7" stroke="#bdbdbd" stroke-linecap="round"></line><line x1="240.49872445339065" x2="219.44167285713206" y1="63.039452256848776" y2="84.0965038531074" stroke-width="7" stroke="#bdbdbd" stroke-linecap="round"></line><line x1="240.49872445339065" x2="219.44167285713206" y1="-448.9605477431512" y2="-427.9034961468926" stroke-width="7" stroke="#bdbdbd" stroke-linecap="round"></line><line x1="496.49872445339065" x2="475.44167285713206" y1="-448.9605477431512" y2="-427.9034961468926" stroke-width="7" stroke="#bdbdbd" stroke-linecap="round"></line><line x1="752.4987244533907" x2="731.4416728571321" y1="-448.9605477431512" y2="-427.9034961468926" stroke-width="7" stroke="#bdbdbd" stroke-linecap="round"></line><line x1="240.49872445339065" x2="219.44167285713206" y1="-192.9605477431512" y2="-171.90349614689262" stroke-width="7" stroke="#bdbdbd" stroke-linecap="round"></line><line x1="496.49872445339065" x2="475.44167285713206" y1="-192.9605477431512" y2="-171.90349614689262" stroke-width="7" stroke="#bdbdbd" stroke-linecap="round"></line><line x1="752.4987244533907" x2="731.4416728571321" y1="-192.9605477431512" y2="-171.90349614689262" stroke-width="7" stroke="#bdbdbd" stroke-linecap="round"></line><line x1="240.49872445339065" x2="219.44167285713206" y1="63.039452256848776" y2="84.0965038531074" stroke-width="7" stroke="#bdbdbd" stroke-linecap="round"></line><line x1="496.49872445339065" x2="475.44167285713206" y1="63.039452256848776" y2="84.0965038531074" stroke-width="7" stroke="#bdbdbd" stroke-linecap="round"></line><line x1="752.4987244533907" x2="731.4416728571321" y1="63.039452256848776" y2="84.0965038531074" stroke-width="7" stroke="#bdbdbd" stroke-linecap="round"></line><line x1="29.51035760857274" x2="5.875097069840599" y1="138.66170337803538" y2="162.29696391676754" stroke-width="7" stroke="#bdbdbd" stroke-linecap="round"></line><line x1="29.51035760857274" x2="5.875097069840599" y1="-373.3382966219646" y2="-349.70303608323246" stroke-width="7" stroke="#bdbdbd" stroke-linecap="round"></line><line x1="285.51035760857275" x2="261.8750970698406" y1="-373.3382966219646" y2="-349.70303608323246" stroke-width="7" stroke="#bdbdbd" stroke-linecap="round"></line><line x1="541.5103576085727" x2="517.8750970698406" y1="-373.3382966219646" y2="-349.70303608323246" stroke-width="7" stroke="#bdbdbd" stroke-linecap="round"></line><line x1="29.51035760857274" x2="5.875097069840599" y1="-117.33829662196462" y2="-93.70303608323246" stroke-width="7" stroke="#bdbdbd" stroke-linecap="round"></line><line x1="285.51035760857275" x2="261.8750970698406" y1="-117.33829662196462" y2="-93.70303608323246" stroke-width="7" stroke="#bdbdbd" stroke-linecap="round"></line><line x1="541.5103576085727" x2="517.8750970698406" y1="-117.33829662196462" y2="-93.70303608323246" stroke-width="7" stroke="#bdbdbd" stroke-linecap="round"></line><line x1="29.51035760857274" x2="5.875097069840599" y1="138.66170337803538" y2="162.29696391676754" stroke-width="7" stroke="#bdbdbd" stroke-linecap="round"></line><line x1="285.51035760857275" x2="261.8750970698406" y1="138.66170337803538" y2="162.29696391676754" stroke-width="7" stroke="#bdbdbd" stroke-linecap="round"></line><line x1="541.5103576085727" x2="517.8750970698406" y1="138.66170337803538" y2="162.29696391676754" stroke-width="7" stroke="#bdbdbd" stroke-linecap="round"></line><line x1="202.98553553047722" x2="176.09893176152642" y1="199.64400969173553" y2="226.53061346068634" stroke-width="7" stroke="#979797" stroke-linecap="round"></line><line x1="202.98553553047722" x2="176.09893176152642" y1="-312.3559903082645" y2="-285.46938653931363" stroke-width="7" stroke="#979797" stroke-linecap="round"></line><line x1="458.98553553047725" x2="432.0989317615264" y1="-312.3559903082645" y2="-285.46938653931363" stroke-width="7" stroke="#979797" stroke-linecap="round"></line><line x1="714.9855355304773" x2="688.0989317615264" y1="-312.3559903082645" y2="-285.46938653931363" stroke-width="7" stroke="#979797" stroke-linecap="round"></line><line x1="202.98553553047722" x2="176.09893176152642" y1="-56.35599030826447" y2="-29.46938653931366" stroke-width="7" stroke="#979797" stroke-linecap="round"></line><line x1="458.98553553047725" x2="432.0989317615264" y1="-56.35599030826447" y2="-29.46938653931366" stroke-width="7" stroke="#979797" stroke-linecap="round"></line><line x1="714.9855355304773" x2="688.0989317615264" y1="-56.35599030826447" y2="-29.46938653931366" stroke-width="7" stroke="#979797" stroke-linecap="round"></line><line x1="202.98553553047722" x2="176.09893176152642" y1="199.64400969173553" y2="226.53061346068634" stroke-width="7" stroke="#979797" stroke-linecap="round"></line><line x1="458.98553553047725" x2="432.0989317615264" y1="199.64400969173553" y2="226.53061346068634" stroke-width="7" stroke="#979797" stroke-linecap="round"></line><line x1="714.9855355304773" x2="688.0989317615264" y1="199.64400969173553" y2="226.53061346068634" stroke-width="7" stroke="#979797" stroke-linecap="round"></line><line x1="97.54480385555158" x2="73.96646040994946" y1="134.2095938680727" y2="157.7879373136748" stroke-width="7" stroke="#bdbdbd" stroke-linecap="round"></line><line x1="97.54480385555158" x2="73.96646040994946" y1="-377.7904061319273" y2="-354.2120626863252" stroke-width="7" stroke="#bdbdbd" stroke-linecap="round"></line><line x1="353.54480385555155" x2="329.9664604099495" y1="-377.7904061319273" y2="-354.2120626863252" stroke-width="7" stroke="#bdbdbd" stroke-linecap="round"></line><line x1="609.5448038555515" x2="585.9664604099495" y1="-377.7904061319273" y2="-354.2120626863252" stroke-width="7" stroke="#bdbdbd" stroke-linecap="round"></line><line x1="97.54480385555158" x2="73.96646040994946" y1="-121.79040613192731" y2="-98.2120626863252" stroke-width="7" stroke="#bdbdbd" stroke-linecap="round"></line><line x1="353.54480385555155" x2="329.9664604099495" y1="-121.79040613192731" y2="-98.2120626863252" stroke-width="7" stroke="#bdbdbd" stroke-linecap="round"></line><line x1="609.5448038555515" x2="585.9664604099495" y1="-121.79040613192731" y2="-98.2120626863252" stroke-width="7" stroke="#bdbdbd" stroke-linecap="round"></line><line x1="97.54480385555158" x2="73.96646040994946" y1="134.2095938680727" y2="157.7879373136748" stroke-width="7" stroke="#bdbdbd" stroke-linecap="round"></line><line x1="353.54480385555155" x2="329.9664604099495" y1="134.2095938680727" y2="157.7879373136748" stroke-width="7" stroke="#bdbdbd" stroke-linecap="round"></line><line x1="609.5448038555515" x2="585.9664604099495" y1="134.2095938680727" y2="157.7879373136748" stroke-width="7" stroke="#bdbdbd" stroke-linecap="round"></line><line x1="83.2383948629853" x2="52.38664673368688" y1="208.7141474824315" y2="239.56589561172993" stroke-width="7" stroke="#bdbdbd" stroke-linecap="round"></line><line x1="83.2383948629853" x2="52.38664673368688" y1="-303.2858525175685" y2="-272.43410438827004" stroke-width="7" stroke="#bdbdbd" stroke-linecap="round"></line><line x1="339.2383948629853" x2="308.38664673368686" y1="-303.2858525175685" y2="-272.43410438827004" stroke-width="7" stroke="#bdbdbd" stroke-linecap="round"></line><line x1="595.2383948629853" x2="564.3866467336869" y1="-303.2858525175685" y2="-272.43410438827004" stroke-width="7" stroke="#bdbdbd" stroke-linecap="round"></line><line x1="83.2383948629853" x2="52.38664673368688" y1="-47.285852517568486" y2="-16.43410438827007" stroke-width="7" stroke="#bdbdbd" stroke-linecap="round"></line><line x1="339.2383948629853" x2="308.38664673368686" y1="-47.285852517568486" y2="-16.43410438827007" stroke-width="7" stroke="#bdbdbd" stroke-linecap="round"></line><line x1="595.2383948629853" x2="564.3866467336869" y1="-47.285852517568486" y2="-16.43410438827007" stroke-width="7" stroke="#bdbdbd" stroke-linecap="round"></line><line x1="83.2383948629853" x2="52.38664673368688" y1="208.7141474824315" y2="239.56589561172993" stroke-width="7" stroke="#bdbdbd" stroke-linecap="round"></line><line x1="339.2383948629853" x2="308.38664673368686" y1="208.7141474824315" y2="239.56589561172993" stroke-width="7" stroke="#bdbdbd" stroke-linecap="round"></line><line x1="595.2383948629853" x2="564.3866467336869" y1="208.7141474824315" y2="239.56589561172993" stroke-width="7" stroke="#bdbdbd" stroke-linecap="round"></line><line x1="32.368523707755365" x2="3.2015792381347197" y1="126.29128678134165" y2="155.4582312509623" stroke-width="7" stroke="#bdbdbd" stroke-linecap="round"></line><line x1="32.368523707755365" x2="3.2015792381347197" y1="-385.7087132186583" y2="-356.5417687490377" stroke-width="7" stroke="#bdbdbd" stroke-linecap="round"></line><line x1="288.36852370775534" x2="259.20157923813474" y1="-385.7087132186583" y2="-356.5417687490377" stroke-width="7" stroke="#bdbdbd" stroke-linecap="round"></line><line x1="544.3685237077553" x2="515.2015792381347" y1="-385.7087132186583" y2="-356.5417687490377" stroke-width="7" stroke="#bdbdbd" stroke-linecap="round"></line><line x1="32.368523707755365" x2="3.2015792381347197" y1="-129.70871321865835" y2="-100.54176874903769" stroke-width="7" stroke="#bdbdbd" stroke-linecap="round"></line><line x1="288.36852370775534" x2="259.20157923813474" y1="-129.70871321865835" y2="-100.54176874903769" stroke-width="7" stroke="#bdbdbd" stroke-linecap="round"></line><line x1="544.3685237077553" x2="515.2015792381347" y1="-129.70871321865835" y2="-100.54176874903769" stroke-width="7" stroke="#bdbdbd" stroke-linecap="round"></line><line x1="32.368523707755365" x2="3.2015792381347197" y1="126.29128678134165" y2="155.4582312509623" stroke-width="7" stroke="#bdbdbd" stroke-linecap="round"></line><line x1="288.36852370775534" x2="259.20157923813474" y1="126.29128678134165" y2="155.4582312509623" stroke-width="7" stroke="#bdbdbd" stroke-linecap="round"></line><line x1="544.3685237077553" x2="515.2015792381347" y1="126.29128678134165" y2="155.4582312509623" stroke-width="7" stroke="#bdbdbd" stroke-linecap="round"></line><line x1="112.43543383405105" x2="78.89106547476027" y1="210.2878139170281" y2="243.8321822763189" stroke-width="7" stroke="#bdbdbd" stroke-linecap="round"></line><line x1="112.43543383405105" x2="78.89106547476027" y1="-301.7121860829719" y2="-268.1678177236811" stroke-width="7" stroke="#bdbdbd" stroke-linecap="round"></line><line x1="368.4354338340511" x2="334.89106547476024" y1="-301.7121860829719" y2="-268.1678177236811" stroke-width="7" stroke="#bdbdbd" stroke-linecap="round"></line><line x1="624.4354338340511" x2="590.8910654747602" y1="-301.7121860829719" y2="-268.1678177236811" stroke-width="7" stroke="#bdbdbd" stroke-linecap="round"></line><line x1="112.43543383405105" x2="78.89106547476027" y1="-45.7121860829719" y2="-12.167817723681111" stroke-width="7" stroke="#bdbdbd" stroke-linecap="round"></line><line x1="368.4354338340511" x2="334.89106547476024" y1="-45.7121860829719" y2="-12.167817723681111" stroke-width="7" stroke="#bdbdbd" stroke-linecap="round"></line><line x1="624.4354338340511" x2="590.8910654747602" y1="-45.7121860829719" y2="-12.167817723681111" stroke-width="7" stroke="#bdbdbd" stroke-linecap="round"></line><line x1="112.43543383405105" x2="78.89106547476027" y1="210.2878139170281" y2="243.8321822763189" stroke-width="7" stroke="#bdbdbd" stroke-linecap="round"></line><line x1="368.4354338340511" x2="334.89106547476024" y1="210.2878139170281" y2="243.8321822763189" stroke-width="7" stroke="#bdbdbd" stroke-linecap="round"></line><line x1="624.4354338340511" x2="590.8910654747602" y1="210.2878139170281" y2="243.8321822763189" stroke-width="7" stroke="#bdbdbd" stroke-linecap="round"></line><line x1="46.83240779582114" x2="15.112160825874877" y1="220.2018063522995" y2="251.9220533222458" stroke-width="7" stroke="#bdbdbd" stroke-linecap="round"></line><line x1="46.83240779582114" x2="15.112160825874877" y1="-291.7981936477005" y2="-260.0779466777542" stroke-width="7" stroke="#bdbdbd" stroke-linecap="round"></line><line x1="302.83240779582115" x2="271.11216082587487" y1="-291.7981936477005" y2="-260.0779466777542" stroke-width="7" stroke="#bdbdbd" stroke-linecap="round"></line><line x1="558.8324077958212" x2="527.1121608258749" y1="-291.7981936477005" y2="-260.0779466777542" stroke-width="7" stroke="#bdbdbd" stroke-linecap="round"></line><line x1="46.83240779582114" x2="15.112160825874877" y1="-35.79819364770049" y2="-4.077946677754198" stroke-width="7" stroke="#bdbdbd" stroke-linecap="round"></line><line x1="302.83240779582115" x2="271.11216082587487" y1="-35.79819364770049" y2="-4.077946677754198" stroke-width="7" stroke="#bdbdbd" stroke-linecap="round"></line><line x1="558.8324077958212" x2="527.1121608258749" y1="-35.79819364770049" y2="-4.077946677754198" stroke-width="7" stroke="#bdbdbd" stroke-linecap="round"></line><line x1="46.83240779582114" x2="15.112160825874877" y1="220.2018063522995" y2="251.9220533222458" stroke-width="7" stroke="#bdbdbd" stroke-linecap="round"></line><line x1="302.83240779582115" x2="271.11216082587487" y1="220.2018063522995" y2="251.9220533222458" stroke-width="7" stroke="#bdbdbd" stroke-linecap="round"></line><line x1="558.8324077958212" x2="527.1121608258749" y1="220.2018063522995" y2="251.9220533222458" stroke-width="7" stroke="#bdbdbd" stroke-linecap="round"></line><line x1="265.2361169633196" x2="240.549401253618" y1="222.69418668025503" y2="247.38090238995665" stroke-width="7" stroke="#bdbdbd" stroke-linecap="round"></line><line x1="265.2361169633196" x2="240.549401253618" y1="-289.30581331974497" y2="-264.61909761004335" stroke-width="7" stroke="#bdbdbd" stroke-linecap="round"></line><line x1="521.2361169633195" x2="496.549401253618" y1="-289.30581331974497" y2="-264.61909761004335" stroke-width="7" stroke="#bdbdbd" stroke-linecap="round"></line><line x1="777.2361169633195" x2="752.549401253618" y1="-289.30581331974497" y2="-264.61909761004335" stroke-width="7" stroke="#bdbdbd" stroke-linecap="round"></line><line x1="265.2361169633196" x2="240.549401253618" y1="-33.30581331974497" y2="-8.619097610043355" stroke-width="7" stroke="#bdbdbd" stroke-linecap="round"></line><line x1="521.2361169633195" x2="496.549401253618" y1="-33.30581331974497" y2="-8.619097610043355" stroke-width="7" stroke="#bdbdbd" stroke-linecap="round"></line><line x1="777.2361169633195" x2="752.549401253618" y1="-33.30581331974497" y2="-8.619097610043355" stroke-width="7" stroke="#bdbdbd" stroke-linecap="round"></line><line x1="265.2361169633196" x2="240.549401253618" y1="222.69418668025503" y2="247.38090238995665" stroke-width="7" stroke="#bdbdbd" stroke-linecap="round"></line><line x1="521.2361169633195" x2="496.549401253618" y1="222.69418668025503" y2="247.38090238995665" stroke-width="7" stroke="#bdbdbd" stroke-linecap="round"></line><line x1="777.2361169633195" x2="752.549401253618" y1="222.69418668025503" y2="247.38090238995665" stroke-width="7" stroke="#bdbdbd" stroke-linecap="round"></line><line x1="9.236116963319603" x2="-15.450598746382013" y1="222.69418668025503" y2="247.38090238995665" stroke-width="7" stroke="#bdbdbd" stroke-linecap="round"></line><line x1="199.83880193854017" x2="160.17763506959366" y1="128.09952700084338" y2="167.7606938697899" stroke-width="7" stroke="#bdbdbd" stroke-linecap="round"></line><line x1="199.83880193854017" x2="160.17763506959366" y1="-383.9004729991566" y2="-344.23930613021014" stroke-width="7" stroke="#bdbdbd" stroke-linecap="round"></line><line x1="455.8388019385402" x2="416.17763506959363" y1="-383.9004729991566" y2="-344.23930613021014" stroke-width="7" stroke="#bdbdbd" stroke-linecap="round"></line><line x1="711.8388019385402" x2="672.1776350695936" y1="-383.9004729991566" y2="-344.23930613021014" stroke-width="7" stroke="#bdbdbd" stroke-linecap="round"></line><line x1="199.83880193854017" x2="160.17763506959366" y1="-127.90047299915662" y2="-88.23930613021011" stroke-width="7" stroke="#bdbdbd" stroke-linecap="round"></line><line x1="455.8388019385402" x2="416.17763506959363" y1="-127.90047299915662" y2="-88.23930613021011" stroke-width="7" stroke="#bdbdbd" stroke-linecap="round"></line><line x1="711.8388019385402" x2="672.1776350695936" y1="-127.90047299915662" y2="-88.23930613021011" stroke-width="7" stroke="#bdbdbd" stroke-linecap="round"></line><line x1="199.83880193854017" x2="160.17763506959366" y1="128.09952700084338" y2="167.7606938697899" stroke-width="7" stroke="#bdbdbd" stroke-linecap="round"></line><line x1="455.8388019385402" x2="416.17763506959363" y1="128.09952700084338" y2="167.7606938697899" stroke-width="7" stroke="#bdbdbd" stroke-linecap="round"></line><line x1="711.8388019385402" x2="672.1776350695936" y1="128.09952700084338" y2="167.7606938697899" stroke-width="7" stroke="#bdbdbd" stroke-linecap="round"></line>
      <animateTransform attributeName="transform" type="translate" values="0 0;-256 256" keyTimes="0;1" repeatCount="indefinite" dur="16.666666666666668s"></animateTransform>
    </g></g>
      </pattern>
    </defs>
    <rect x="0" y="0" width="100%" height="100%" fill="url(#pid-0.4499059630448061)"></rect>
    </svg>