<svg xmlns="http://www.w3.org/2000/svg" version="1.1" xmlns:xlink="http://www.w3.org/1999/xlink" xmlns:svgjs="http://svgjs.com/svgjs" width="1000" height="1000"><rect width="1000" height="1000" rx="300" ry="300" fill="#c4c4c4"></rect><g transform="matrix(0.6246535125047825,0,0,0.6246535125047825,99.99812327651148,99.99812327651148)"><svg xmlns="http://www.w3.org/2000/svg" version="1.1" xmlns:xlink="http://www.w3.org/1999/xlink" xmlns:svgjs="http://svgjs.com/svgjs" width="1280.71" height="1280.71"><svg id="Capa_1" data-name="Capa 1" xmlns="http://www.w3.org/2000/svg" viewBox="0 0 1280.71 1280.71">
  <defs>
    <style>
      .cls-1 {
        fill: #c44341;
        stroke: #211915;
        stroke-miterlimit: 10;
      }

      .cls-2 {
        fill: #444242;
        stroke-width: 0px;
      }

      .cls-3 {
        fill: none;
        stroke: #050006;
        stroke-linecap: round;
        stroke-linejoin: round;
        stroke-width: .71px;
      }
    </style>
  </defs>
  <g id="LWPOLYLINE">
    <g>
      <g>
        <path class="cls-2" d="m1194.61,320.35c56.17,97.29,85.74,207.66,85.74,320,0,353.46-286.54,640-640,640H244.35c-56.33,0-102-45.67-102-102s45.67-102,102-102h396c240.8,0,436-195.2,436-436,0-76.53-20.15-151.72-58.41-218-28.17-48.79-11.45-111.17,37.33-139.33,48.79-28.17,111.17-11.46,139.34,37.33Z"></path>
        <path class="cls-2" d="m1036.35.35c56.33,0,102,45.67,102,102s-45.67,102-102,102h-396c-240.8,0-436,195.2-436,436,0,76.53,20.15,151.72,58.41,218,28.17,48.79,11.45,111.17-37.33,139.33-48.79,28.17-111.17,11.46-139.34-37.33C29.92,863.06.35,752.69.35,640.35.35,286.89,286.89.35,640.35.35h396Z"></path>
        <circle class="cls-2" cx="640.35" cy="640.35" r="240"></circle>
      </g>
      <g>
        <circle class="cls-3" cx="640.35" cy="640.35" r="240"></circle>
        <path class="cls-3" d="m640.35,1076.35c240.8,0,436-195.2,436-436,0-76.53-20.15-151.72-58.41-218-28.17-48.79-11.45-111.17,37.33-139.33,48.79-28.17,111.17-11.46,139.34,37.33,56.17,97.29,85.74,207.66,85.74,320,0,353.46-286.54,640-640,640H244.35c-56.33,0-102-45.67-102-102s45.67-102,102-102h396Z"></path>
        <path class="cls-3" d="m640.35.35C286.89.35.35,286.89.35,640.35c0,112.34,29.57,222.71,85.74,320,28.17,48.79,90.55,65.5,139.34,37.33,48.78-28.16,65.5-90.54,37.33-139.33-38.26-66.28-58.41-141.47-58.41-218,0-240.8,195.2-436,436-436h396c56.33,0,102-45.67,102-102S1092.68.35,1036.35.35h-396Z"></path>
      </g>
    </g>
  </g>
  <circle class="cls-1" cx="640.35" cy="640.35" r="60"></circle>
</svg></svg></g></svg>