<?xml version="1.0" encoding="utf-8"?><!-- Uploaded to: SVG Repo, www.svgrepo.com, Generator: SVG Repo Mixer Tools -->
<svg width="800px" height="800px" viewBox="0 0 24 24" xmlns="http://www.w3.org/2000/svg" id="present-statistic" class="icon glyph"><path d="M21,3H3A1,1,0,0,0,3,5V16a2,2,0,0,0,2,2H19a2,2,0,0,0,2-2V5a1,1,0,0,0,0-2Zm-4.45,8.83a1,1,0,0,1-1.38-.28l-.95-1.41-1.29,3.23A1,1,0,0,1,12,14h0a1,1,0,0,1-.89-.55L9.73,10.69l-1,1a1,1,0,1,1-1.42-1.42l2-2A1,1,0,0,1,10.16,8a1,1,0,0,1,.73.54l1,2,1.17-2.93A1,1,0,0,1,13.9,7a1,1,0,0,1,.93.44l2,3A1,1,0,0,1,16.55,11.83ZM10.08,19l-1.3,1.62A1,1,0,0,1,8,21a1,1,0,0,1-.62-.22,1,1,0,0,1-.16-1.4l.3-.38Zm6.54,1.78A1,1,0,0,1,16,21a1,1,0,0,1-.78-.38L13.92,19h2.56l.3.38A1,1,0,0,1,16.62,20.78Z" style="fill:#231f20"></path></svg>